# xmcd CD database file
#
# Track frame offsets:
#	150
#	17512
#	33700
#
# Disc length: 677 seconds
#
# Revision: 0
# Processed by: cddbd v1.5.2PL0 Copyright (c) Steve Scherf et al.
# Submitted via: CDex 1.70beta2
#
DISCID=1b02a303
DTITLE=斎藤誠 - 今 僕を泣かせて E.P.
DYEAR=1900
DGENRE=Blues
TTITLE0=今 僕を泣かせて
TTITLE1=もしかしたらこの程度が愛なのかもしれない
TTITLE2=今 僕を泣かせて(Original Karaoke)
EXTD=
EXTT0=
EXTT1=
EXTT2=
PLAYORDER=
